<?xml version="1.0" encoding="utf-8"?>
<!-- Generator: Adobe Illustrator 18.1.0, SVG Export Plug-In . SVG Version: 6.00 Build 0)  -->
<svg version="1.0" id="Layer_1" xmlns="http://www.w3.org/2000/svg" xmlns:xlink="http://www.w3.org/1999/xlink" x="0px" y="0px"
	 viewBox="0 0 150 150" enable-background="new 0 0 150 150" xml:space="preserve">
<g>
	<path fill="none" d="M96.1,67.1c-8.6,9.6-12.7,19.1-13.8,28c-4.9-2.5-10-5.5-15.3-9.1c-1-0.6-1.9-1.3-2.8-1.9
		c-0.5-3.9-0.7-7.9-0.8-11.7c-0.1-7.3,0.8-14.9,2.5-22.4c-1.5-0.8-2.9-1.6-4.4-2.4c-3.1-1.7-6.2-3.2-9.1-4.5c-0.2,0.5-0.6,0.8-1,1.1
		c-1.2,0.6-2.7-0.2-3.4-1.7c-0.2-0.4-0.3-0.8-0.3-1.3c-5-1.9-9.5-3-13.1-3.2c0,0,0.1,0.1,0.1,0.1c-2.1,0.2-4.8,0.4-6.9,1
		c-1.3,0.8-2.2,1.9-2.6,3.4c-0.3,1.4-0.2,3,0.3,4.8c1,3.1,3,6.8,5.7,10.8C35.5,64.2,41.6,70.6,49,77c0,0,0.1-0.1,0.1-0.1
		c1-0.7,1.9-1.4,2.9-2c3.5-2.3,7.2-4.5,11.1-6.5c0,0.4,0,0.7,0,1.1c-3.6,1.9-6.9,4.1-10,6.3c-1,0.7-1.9,1.4-2.8,2.1
		c-0.1,0-0.1,0.1-0.2,0.1c0.9,0.8,1.9,1.6,2.9,2.4c0.1-0.1,0.1-0.1,0.2-0.2c0.8-1,1.8-1.7,3-2c0.5-0.1,1-0.2,1.5-0.2
		c3,0,5.6,2.6,6.2,6c0.1,0.6,0.2,1.1,0.2,1.7c0,0.8-0.1,1.5-0.3,2.2c0,0.1-0.1,0.3-0.1,0.4c0.5,0.3,1,0.7,1.5,1
		c0-0.2-0.1-0.4-0.1-0.6C71,92.7,76.7,96,82,98.7c0,0.2,0,0.5,0,0.7c3.5,1.8,6.8,3.2,9.8,4.4c0.7,0.3,1.4,0.5,2.1,0.8
		c0.3-0.2,0.6-0.3,0.9-0.5c0.2-0.1,0.4-0.2,0.6-0.4c6.3-3.9,11.9-8.3,16.2-12.9c-0.2-0.4-0.5-0.8-0.7-1.3c-0.9-1.6-2.1-3.2-3.3-4.9
		c1.3,1.6,2.5,3.2,3.5,4.7c0.3,0.4,0.5,0.8,0.8,1.2c4.9-5.3,8.1-10.9,8.9-16c0-0.1,0-0.1,0-0.2c1.1-8.3-4.6-13.7-14.5-15.1
		C102.7,61.1,99.3,63.6,96.1,67.1z"/>
	<path fill="none" d="M74.6,111.3c-3.3-5.4-6-11-8-17c-0.9-0.6-1.7-1.1-2.6-1.7c-0.6-0.4-1.2-0.8-1.9-1.3c-1.1,1.3-2.7,2.1-4.4,2.1
		c-3.5,0-6.4-3.5-6.4-7.7c0-0.7,0.1-1.4,0.2-2.1c-1.4-1.1-2.8-2.2-4.1-3.3c-7.7,6.7-12.9,14.1-13.8,20.8c-0.2,1.1-0.2,2.2-0.1,3.2
		c0.9,11.8,17.7,16,39.9,9.3c0.7-0.2,1.4-0.4,2.1-0.7c2.5-0.8,5-1.8,7.4-2.8c2.5-1.1,4.9-2.2,7.2-3.4c-0.7-0.3-1.4-0.5-2.1-0.8
		c-2-0.8-4-1.7-6.1-2.7c0.1,1.8,0.3,3.5,0.6,5.3C80,109.4,77.3,110.4,74.6,111.3z"/>
	<path fill="none" d="M113,93.8c-4,4.2-9,8.4-14.7,12.1c9.1,2.4,15.3,1.5,16.5-3.3c0.5-2.1,0-4.7-1.3-7.7
		C113.3,94.6,113.2,94.2,113,93.8z"/>
	<path fill="#73BF44" d="M91.3,28.6c-5,2-7.5,7.7-5.5,12.7c2,5,7.7,7.5,12.7,5.5c5-2,7.5-7.7,5.5-12.7C102,29.1,96.3,26.6,91.3,28.6
		z"/>
	<path fill="#73BF44" d="M85.7,127c5,6.3,10.6,10.7,14.6,14.2c0,0,0,0,0.1-0.1c-3.5-3.7-8.1-9.3-11.4-15.2
		c-2.1-3.7-3.8-7.8-5.1-12.1c-2,0.9-4,1.7-6.1,2.5C80.4,120,83,123.6,85.7,127z"/>
	<path fill="#73BF44" d="M65.1,88.8c0,0.2,0.1,0.4,0.1,0.6c0.3,0.2,0.5,0.4,0.8,0.5c5.5,3.7,10.9,6.9,16,9.4c0-0.2,0-0.5,0-0.7
		C76.7,96,71,92.7,65.1,88.8z"/>
	<path fill="#73BF44" d="M74.6,111.3c2.7-0.9,5.4-1.9,8-3c-0.3-1.7-0.5-3.5-0.6-5.3c-4.9-2.4-10.1-5.3-15.4-8.7
		C68.6,100.3,71.4,105.9,74.6,111.3z"/>
	<path fill="#73BF44" d="M66.4,50.4c-0.1-0.1-0.3-0.2-0.4-0.2c-1.7,7.5-2.5,15.1-2.5,22.4c0,3.8,0.2,7.8,0.8,11.7
		c0.9,0.6,1.9,1.3,2.8,1.9c5.3,3.5,10.4,6.6,15.3,9.1c1.1-8.9,5.2-18.4,13.8-28c3.1-3.5,6.6-6,10-7.8c-0.1,0-0.1,0-0.2,0
		c0.2-0.2,0.5-0.4,0.7-0.6c0.2,0,0.4,0.1,0.6,0.1c13.5-6.4,27.4-2,27.4-2s-25.7-15.3-48-5c-10-7.7-3.8-29,6.3-45.8
		c-5.7,5.2-11.4,10-15.4,16.1c-5.4,8-9.2,17.6-11.5,27.5c0.1,0.1,0.3,0.2,0.4,0.3C66.4,50,66.4,50.2,66.4,50.4z"/>
	<linearGradient id="SVGID_1_" gradientUnits="userSpaceOnUse" x1="91.853" y1="29.6784" x2="177.4225" y2="29.6784">
		<stop  offset="0" style="stop-color:#1E76BA"/>
		<stop  offset="1" style="stop-color:#3387C8"/>
	</linearGradient>
	<path fill="url(#SVGID_1_)" d="M92.1,17.9c0,0-0.3,0.1-0.3,0.6c0,0.5,0.4,0.5,0.4,0.5l0.1,1.1l2.7-1.7c0.2,0.3,0.6,0.5,1,0.4
		c0.4-0.1,0.7-0.3,0.8-0.6l0.2,0l4.7-0.6l0.2,6l-3.4,1.9c0,0,0.7,0.3,1.6,0.9c-0.3-0.1-0.9-0.2-1.1-0.3c0.7,0.7,1.6,1.2,2.4,1.8
		c0.8,0.7,1.4,1.4,2,2.2c2.8,3.5,3.6,7.8,3.1,12.1l0-0.1c0-0.3,0.2-0.5,0.2-0.8c0.1-0.2,0.1-0.4,0.2-0.6l3.5-1.4l7,4.8l-2.4-17.3
		l-13.4-11.4l0,1.2l-5,0.8c-0.2-0.2-0.5-0.3-0.9-0.3c-0.3,0-0.6,0.3-0.7,0.5L92,16.8L92.1,17.9z"/>
	<linearGradient id="SVGID_2_" gradientUnits="userSpaceOnUse" x1="20.9583" y1="79.0529" x2="362.7368" y2="79.0529">
		<stop  offset="0" style="stop-color:#1E76BA"/>
		<stop  offset="1" style="stop-color:#3387C8"/>
	</linearGradient>
	<path fill="url(#SVGID_2_)" d="M107.3,58.8c-0.4,0.2-0.7,0.4-1.1,0.5c9.8,1.5,15.6,6.8,14.5,15.1c0,0.1,0,0.1,0,0.2
		c-0.7,5.1-3.9,10.6-8.9,16c-0.3-0.4-0.5-0.8-0.8-1.2c-1-1.5-2.2-3.1-3.5-4.7c1.3,1.7,2.4,3.3,3.3,4.9c0.3,0.4,0.5,0.9,0.7,1.3
		c-4.3,4.6-9.8,9-16.2,12.9c-0.2,0.1-0.4,0.2-0.6,0.4c-0.3,0.2-0.6,0.3-0.9,0.5c-0.7-0.2-1.4-0.5-2.1-0.8c-3.1-1.2-6.4-2.7-9.8-4.4
		c0,1.2,0,2.4,0,3.6c2.1,1,4.1,1.9,6.1,2.7c0.7,0.3,1.4,0.6,2.1,0.8c-2.3,1.2-4.7,2.4-7.2,3.4c-2.4,1-4.9,2-7.4,2.8
		c-0.7,0.2-1.4,0.5-2.1,0.7c-22.1,6.7-39,2.5-39.9-9.3c-0.1-1,0-2,0.1-3.2c1-6.7,6.1-14,13.8-20.8c1.3,1.1,2.7,2.2,4.1,3.3
		c-0.2,0.7-0.2,1.4-0.2,2.1c0,4.3,2.9,7.7,6.4,7.7c1.7,0,3.2-0.8,4.4-2.1c0.6,0.4,1.2,0.8,1.9,1.3c0.9,0.6,1.8,1.1,2.6,1.7
		c-0.5-1.6-1-3.2-1.4-4.9c-0.5-0.3-1-0.7-1.5-1c0-0.1,0.1-0.3,0.1-0.4c0.2-0.7,0.3-1.5,0.3-2.2c0-0.6-0.1-1.2-0.2-1.7
		c-0.7-3.4-3.2-6-6.2-6c-0.5,0-1,0.1-1.5,0.2c-1.1,0.3-2.2,1-3,2c-0.1,0.1-0.1,0.1-0.2,0.2c-1-0.8-1.9-1.6-2.9-2.4
		c0.1,0,0.1-0.1,0.2-0.1c0.9-0.7,1.8-1.4,2.8-2.1c3.1-2.2,6.5-4.4,10-6.3c0-0.4,0-0.7,0-1.1c-3.9,2-7.7,4.1-11.1,6.5
		c-1,0.7-2,1.3-2.9,2c0,0-0.1,0.1-0.1,0.1c-7.4-6.4-13.5-12.9-17.7-18.7c-2.8-4-4.7-7.7-5.7-10.8c-0.5-1.8-0.6-3.5-0.3-4.8
		c0.4-1.5,1.3-2.7,2.6-3.4c2.1-0.7,4.8-0.8,6.9-1c0-0.1,0-0.1-0.1-0.1c3.6,0.2,8,1.3,13.1,3.2c0,0.4,0.1,0.9,0.3,1.3
		c0.7,1.5,2.2,2.3,3.4,1.7c0.4-0.2,0.8-0.6,1-1.1c2.9,1.3,5.9,2.8,9.1,4.5c1.4,0.7,2.9,1.5,4.4,2.4c0-0.2,0.1-0.4,0.1-0.6
		c-2.5-1.5-4.9-3-7.3-4.3c-2.1-1.1-4.1-2.1-6-3c0.1-0.6,0-1.2-0.3-1.8c-0.7-1.5-2.2-2.3-3.4-1.7c-0.6,0.3-0.9,0.8-1.1,1.4
		c-14.5-5.8-25.1-5.9-26.7,0.9c-0.2,0.8-0.2,1.7-0.2,2.6c-0.6,8.1,9.6,22,25.2,35.4c-3.3,2.6-6.3,5.3-8.9,8.1
		c-5.4,5.9-9,12-9.8,17.6c-0.2,1.3-0.2,2.4-0.1,3.6c1.1,13,19.6,17.6,43.9,10.2c2.2-0.7,4.4-1.4,6.5-2.2c-0.3-0.5-0.7-1-1-1.5
		c2.2-0.8,4.5-1.7,6.6-2.7c0.1,0.6,0.3,1.1,0.5,1.7c3.7-1.7,7.4-3.6,10.8-5.6c11.7,3.7,19.9,3.1,21.3-2.8c0.2-0.8,0.2-1.7,0.2-2.6
		c0.2-2.2-0.5-4.8-1.8-7.7c-0.3-0.6-0.6-1.1-0.9-1.7c5.5-5.9,9.1-12.1,9.9-17.7C124.7,66.3,118.3,60.3,107.3,58.8z M114.8,102.6
		c-1.1,4.9-7.4,5.8-16.5,3.3c5.7-3.7,10.7-7.8,14.7-12.1c0.2,0.4,0.3,0.7,0.4,1.1C114.8,97.9,115.3,100.5,114.8,102.6z"/>
	<path fill="#73BF44" d="M76.9,114.9c0.3,0.5,0.7,1,1,1.5c2.1-0.8,4.1-1.6,6.1-2.5c-0.2-0.6-0.3-1.1-0.5-1.7
		C81.3,113.1,79.1,114,76.9,114.9z"/>
	<linearGradient id="SVGID_3_" gradientUnits="userSpaceOnUse" x1="20.9582" y1="114.2609" x2="362.7368" y2="114.2609">
		<stop  offset="0" style="stop-color:#1E76BA"/>
		<stop  offset="1" style="stop-color:#3387C8"/>
	</linearGradient>
	<path fill="url(#SVGID_3_)" d="M76.9,114.9c0.3,0.5,0.7,1,1,1.5c2.1-0.8,4.1-1.6,6.1-2.5c-0.2-0.6-0.3-1.1-0.5-1.7
		C81.3,113.1,79.1,114,76.9,114.9z"/>
	<path fill="#73BF44" d="M65.2,89.4c0.4,1.7,0.9,3.3,1.4,4.9c5.3,3.4,10.5,6.3,15.4,8.7c-0.1-1.2-0.1-2.4,0-3.6
		c-5.1-2.6-10.5-5.7-16-9.4C65.8,89.8,65.5,89.6,65.2,89.4z"/>
	<linearGradient id="SVGID_4_" gradientUnits="userSpaceOnUse" x1="20.9582" y1="96.2354" x2="362.7368" y2="96.2354">
		<stop  offset="0" style="stop-color:#1E76BA"/>
		<stop  offset="1" style="stop-color:#3387C8"/>
	</linearGradient>
	<path fill="url(#SVGID_4_)" d="M65.2,89.4c0.4,1.7,0.9,3.3,1.4,4.9c5.3,3.4,10.5,6.3,15.4,8.7c-0.1-1.2-0.1-2.4,0-3.6
		c-5.1-2.6-10.5-5.7-16-9.4C65.8,89.8,65.5,89.6,65.2,89.4z"/>
	<path fill="#73BF44" d="M106,59.3c0.1,0,0.1,0,0.2,0c0.4-0.2,0.7-0.4,1.1-0.5c-0.2,0-0.4-0.1-0.6-0.1
		C106.5,58.9,106.3,59.1,106,59.3z"/>
	<linearGradient id="SVGID_5_" gradientUnits="userSpaceOnUse" x1="20.9582" y1="58.9844" x2="362.7368" y2="58.9844">
		<stop  offset="0" style="stop-color:#1E76BA"/>
		<stop  offset="1" style="stop-color:#3387C8"/>
	</linearGradient>
	<path fill="url(#SVGID_5_)" d="M106,59.3c0.1,0,0.1,0,0.2,0c0.4-0.2,0.7-0.4,1.1-0.5c-0.2,0-0.4-0.1-0.6-0.1
		C106.5,58.9,106.3,59.1,106,59.3z"/>
	<path fill="#73BF44" d="M66.4,50.4c0-0.2,0.1-0.4,0.1-0.6c-0.1-0.1-0.3-0.2-0.4-0.3c0,0.2-0.1,0.4-0.1,0.6
		C66.1,50.2,66.2,50.3,66.4,50.4z"/>
	<linearGradient id="SVGID_6_" gradientUnits="userSpaceOnUse" x1="20.9582" y1="49.9472" x2="362.7368" y2="49.9472">
		<stop  offset="0" style="stop-color:#1E76BA"/>
		<stop  offset="1" style="stop-color:#3387C8"/>
	</linearGradient>
	<path fill="url(#SVGID_6_)" d="M66.4,50.4c0-0.2,0.1-0.4,0.1-0.6c-0.1-0.1-0.3-0.2-0.4-0.3c0,0.2-0.1,0.4-0.1,0.6
		C66.1,50.2,66.2,50.3,66.4,50.4z"/>
</g>
</svg>
